# This file uses centimeters as units for non-parametric coordinates.

mtllib building.mtl
g default
v 0.032516 0.764097 4.035342
v 1.976062 0.764097 4.035342
v 0.032516 1.482268 4.035342
v 1.976062 1.482268 4.035342
vt 0.176518 0.658270
vt 0.479253 0.658270
vt 0.479253 0.759171
vt 0.176518 0.759171
vn 0.000000 0.000000 1.000000
vn 0.000000 0.000000 1.000000
vn 0.000000 0.000000 1.000000
vn 0.000000 0.000000 1.000000
s off
g pPlane2
usemtl initialShadingGroup
f 1/1/1 2/2/2 4/3/3 3/4/4
g default
v -3.453097 2.067504 5.007229
v -2.656024 2.067504 5.007229
v -3.453097 2.551751 5.007229
v -2.656024 2.551751 5.007229
vt 0.522773 0.615233
vt 0.960755 0.615233
vt 0.522773 0.787471
vt 0.960755 0.787471
vn 0.000000 -0.000000 1.000000
vn 0.000000 -0.000000 1.000000
vn 0.000000 -0.000000 1.000000
vn 0.000000 -0.000000 1.000000
s off
g pPlane3
usemtl initialShadingGroup
f 5/5/5 6/6/6 8/8/7 7/7/8
g default
v -3.453097 0.897479 5.007229
v -2.656024 0.897479 5.007229
v -3.453097 1.381726 5.007229
v -2.656024 1.381726 5.007229
vt 0.522773 0.615233
vt 0.960755 0.615233
vt 0.522773 0.787471
vt 0.960755 0.787471
vn 0.000000 -0.000000 1.000000
vn 0.000000 -0.000000 1.000000
vn 0.000000 -0.000000 1.000000
vn 0.000000 -0.000000 1.000000
s off
g pPlane4
usemtl initialShadingGroup
f 9/9/9 10/10/10 12/12/11 11/11/12
g default
v -1.708678 1.825343 2.523890
v 3.420197 1.825343 2.523890
v -1.708678 2.825343 2.523890
v 3.420197 2.825343 2.523890
vt 0.079924 0.810593
vt 0.915801 0.810593
vt 0.915801 0.983093
vt 0.079924 0.983093
vn 0.000000 0.000000 1.000000
vn 0.000000 0.000000 1.000000
vn 0.000000 0.000000 1.000000
vn 0.000000 0.000000 1.000000
s off
g pPlane1
usemtl initialShadingGroup
f 13/13/13 14/14/14 16/15/15 15/16/16
g default
v -4.000000 0.000000 2.500001
v -2.000000 0.000000 2.500000
v 0.000000 0.000000 2.500000
v 2.000000 0.000000 2.500000
v 4.000000 0.000000 2.500000
v 0.000000 1.500000 2.500000
v 2.000000 1.500000 2.500000
v -4.000000 3.000000 2.500001
v -2.000000 3.000000 2.500000
v 0.000000 3.000000 2.500000
v 2.000000 3.000000 2.500000
v 4.000000 3.000000 2.500000
v -4.000000 3.000000 -2.500000
v -2.000000 3.000000 -2.500000
v 0.000000 3.000000 -2.500000
v 2.000000 3.000000 -2.500001
v 4.000000 3.000000 -2.499999
v -4.000000 0.000000 -2.500000
v -2.000000 0.000000 -2.500000
v 0.000000 0.000000 -2.500000
v 2.000000 0.000000 -2.500001
v 4.000000 0.000000 -2.499999
v -4.000000 0.000000 4.998620
v -2.000000 0.000000 4.998622
v -2.000000 3.000000 4.998622
v -4.000000 3.000000 4.998620
v 0.000000 1.500000 2.500000
v 2.000000 1.500000 2.500000
v 2.000000 3.000000 2.500000
v 0.000000 3.000000 2.500000
v 1.000000 0.000000 2.500000
v 2.000000 0.750000 2.500000
v 0.000000 0.750000 2.500000
v 2.000000 0.750000 4.032112
v 2.000000 1.500000 4.032112
v 0.000000 1.500000 4.032112
v 0.000000 0.750000 4.032112
v 2.000000 1.500000 3.661450
v 2.000000 0.750000 3.661450
v 1.500000 1.500000 3.661450
v 1.500000 1.500000 4.032112
v 1.500000 0.750000 3.661450
v 1.500000 0.750000 4.032112
v 0.500000 1.500000 3.661450
v -0.000000 1.500000 3.661450
v 0.500000 1.500000 4.032112
v -0.000000 0.750000 3.661450
v 0.500000 0.750000 3.661450
v 0.500000 0.750000 4.032112
v 2.000000 0.000001 3.661450
v 2.000000 0.000001 4.032112
v 1.500000 0.000001 4.032112
v 1.500000 0.000001 3.661450
v 0.000000 0.000001 4.032112
v 0.500000 0.000001 4.032112
v -0.000000 0.000001 3.661450
v 0.500000 0.000001 3.661450
v 1.500000 1.686573 4.032112
v 2.000000 1.686573 4.032112
v 2.000000 1.686573 3.661450
v 1.500000 1.686573 3.661450
v -0.000000 1.686573 3.661450
v 0.000000 1.686573 4.032112
v 0.500000 1.686573 4.032112
v 0.500000 1.686573 3.661450
vt 0.941393 0.568063
vt 0.941393 0.116794
vt 0.941393 0.116794
vt 0.941393 0.568063
vt 0.505564 0.586684
vt 0.505564 0.028908
vt 0.976727 0.028908
vt 0.976727 0.586684
vt 0.826916 0.025991
vt 0.970987 0.026251
vt 0.970987 0.585442
vt 0.512425 0.585442
vt 0.597761 0.585183
vt 0.597761 0.025991
vt 0.507863 0.030210
vt 0.746224 0.030210
vt 0.746224 0.586740
vt 0.507863 0.586740
vt 0.965276 0.061504
vt 0.965276 0.556907
vt 0.965276 0.556907
vt 0.965276 0.061504
vt 0.966303 0.556907
vt 0.966303 0.061504
vt 0.966303 0.061504
vt 0.966303 0.556907
vt 0.503072 0.529066
vt 0.503072 0.280044
vt 0.618851 0.529066
vt 0.618851 0.280044
vt 0.618851 0.591014
vt 0.503072 0.591014
vt 0.503072 0.031022
vt 0.618851 0.031022
vt 0.981643 0.529066
vt 0.981643 0.280044
vt 0.982701 0.277825
vt 0.982701 0.526847
vt 0.866918 0.277825
vt 0.866918 0.526847
vt 0.866918 0.028803
vt 0.982701 0.028803
vt 0.982701 0.588795
vt 0.866918 0.588795
vt 0.504128 0.277825
vt 0.504128 0.526847
vt 0.802903 0.501406
vt 0.687124 0.501406
vt 0.687124 0.252384
vt 0.802903 0.252384
vt 0.798488 0.501406
vt 0.682708 0.501406
vt 0.682708 0.252384
vt 0.798488 0.252384
vt 0.695635 0.422598
vt 0.695635 0.348755
vt 0.792765 0.348755
vt 0.792765 0.422598
vt 0.792765 0.348755
vt 0.792765 0.422598
vt 0.695635 0.422598
vt 0.695635 0.348755
vt 0.477435 0.167637
vt 0.080606 0.304842
vt 0.015981 0.312896
vt 0.015981 0.167637
vt 0.414969 0.447545
vt 0.080774 0.447545
vt 0.015981 0.021994
vt 0.477435 0.021994
vt 0.415137 0.590248
vt 0.015968 0.424289
vt 0.477423 0.025104
vt 0.477423 0.424289
vt 0.941579 0.326226
vt 0.941579 0.557608
vt 0.843965 0.326226
vt 0.551127 0.557608
vt 0.648740 0.326226
vt 0.551127 0.326226
vt 0.843965 0.252384
vt 0.648740 0.252384
vt 0.547600 0.483765
vt 0.547600 0.252384
vt 0.645212 0.483765
vt 0.938052 0.252384
vt 0.840436 0.483765
vt 0.938052 0.483765
vt 0.645212 0.557608
vt 0.840436 0.557608
vt 0.792876 0.422499
vt 0.695524 0.422499
vt 0.695524 0.348854
vt 0.792876 0.348854
vt 0.792875 0.348854
vt 0.792875 0.422499
vt 0.695524 0.422499
vt 0.695524 0.348854
vt 0.856737 0.172374
vt 0.738664 0.172374
vt 0.856737 0.034610
vt 0.797700 0.034610
vt 0.974811 0.585667
vt 0.738664 0.034610
vt 0.974811 0.034610
vt 0.856737 0.310139
vt 0.620590 0.034610
vt 0.856737 0.585667
vt 0.738664 0.310139
vt 0.620590 0.585667
vt 0.738664 0.585667
vt 0.974589 0.034610
vt 0.974589 0.585667
vt 0.856516 0.585667
vt 0.856516 0.034610
vt 0.738687 0.304447
vt 0.738687 0.309427
vt 0.620613 0.304447
vt 0.620613 0.309427
vt 0.738687 0.584956
vt 0.620613 0.584956
vt 0.623479 0.030869
vt 0.623479 0.588645
vt 0.505688 0.588645
vt 0.505688 0.030869
vt 0.741269 0.030869
vt 0.741269 0.588645
vt 0.859060 0.030869
vt 0.859060 0.588645
vt 0.976850 0.030869
vt 0.976850 0.588645
vt 0.936592 0.279226
vt 0.936592 0.528248
vt 0.838979 0.279226
vt 0.838979 0.528248
vt 0.838979 0.030204
vt 0.936592 0.030204
vt 0.936592 0.590196
vt 0.838979 0.590196
vt 0.643754 0.279226
vt 0.643754 0.528248
vt 0.546139 0.528248
vt 0.643754 0.590196
vt 0.546139 0.590196
vt 0.546139 0.279226
vt 0.546139 0.030204
vt 0.643754 0.030204
vt 0.692611 0.252382
vt 0.790226 0.252382
vt 0.790226 0.501404
vt 0.692611 0.501404
vt 0.696327 0.252382
vt 0.793942 0.252382
vt 0.793942 0.501404
vt 0.696327 0.501404
vt 0.982620 0.462250
vt 0.982620 0.524175
vt 0.932767 0.524175
vt 0.932767 0.462250
vt 0.982227 0.462250
vt 0.982227 0.524175
vt 0.932375 0.524175
vt 0.932375 0.462250
vt 0.738687 0.585922
vt 0.738687 0.585922
vt 0.620613 0.585922
vt 0.620613 0.304447
vt 0.826916 0.585183
vt 0.512425 0.026251
vt 0.015968 0.025104
vt 0.080774 0.590248
vt 0.415137 0.447545
vt 0.080606 0.447545
vt 0.414969 0.304842
vt 0.477435 0.312896
vn 0.000000 0.000000 1.000000
vn -0.000000 -0.000000 1.000000
vn -0.000000 -0.000000 1.000000
vn 0.000000 -0.000000 1.000000
vn 0.000000 0.000000 1.000000
vn -0.000001 0.000000 1.000000
vn -0.000001 0.000000 1.000000
vn -0.000001 0.000000 1.000000
vn -0.000001 0.000000 1.000000
vn 0.000000 0.000000 1.000000
vn 0.000000 0.000000 1.000000
vn 0.000000 0.000000 1.000000
vn 0.000000 0.000000 1.000000
vn -0.000000 0.000000 1.000000
vn -0.000000 0.000000 1.000000
vn -0.000000 0.000000 1.000000
vn -0.000000 0.000000 1.000000
vn -0.000000 0.000000 1.000000
vn 0.000000 0.000000 1.000000
vn 0.000000 0.000000 1.000000
vn 0.000000 0.000000 1.000000
vn 0.000000 0.000000 1.000000
vn 0.000000 0.000000 1.000000
vn 0.000000 1.000000 0.000000
vn 0.000000 1.000000 0.000000
vn 0.000000 1.000000 0.000000
vn 0.000000 1.000000 0.000000
vn 0.000000 1.000000 0.000000
vn 0.000000 1.000000 0.000000
vn 0.000000 1.000000 0.000000
vn 0.000000 1.000000 0.000000
vn 0.000000 1.000000 0.000000
vn 0.000000 1.000000 0.000000
vn 0.000000 -0.000000 -1.000000
vn 0.000000 -0.000000 -1.000000
vn 0.000000 -0.000000 -1.000000
vn 0.000000 -0.000000 -1.000000
vn -0.000000 0.000000 -1.000000
vn -0.000000 0.000000 -1.000000
vn 0.000000 0.000000 -1.000000
vn 0.000000 0.000000 -1.000000
vn 0.000001 0.000000 -1.000000
vn 0.000001 0.000000 -1.000000
vn 1.000000 -0.000000 -0.000000
vn 1.000000 -0.000000 -0.000000
vn 1.000000 -0.000000 -0.000000
vn 1.000000 -0.000000 -0.000000
vn -1.000000 0.000000 0.000000
vn -1.000000 0.000000 0.000000
vn -1.000000 0.000000 0.000000
vn -1.000000 0.000000 0.000000
vn 1.000000 0.000000 0.000000
vn 1.000000 0.000000 0.000000
vn 1.000000 0.000000 0.000000
vn 1.000000 0.000000 0.000000
vn 0.000000 1.000000 0.000000
vn 0.000000 1.000000 0.000000
vn 0.000000 1.000000 0.000000
vn 0.000000 1.000000 0.000000
vn -1.000000 0.000000 0.000000
vn -1.000000 0.000000 0.000000
vn -1.000000 0.000000 0.000000
vn -1.000000 0.000000 0.000000
vn 0.000000 0.000000 -0.000000
vn 0.966235 0.000000 -0.257663
vn 0.966235 0.000000 -0.257663
vn 0.966235 0.000000 -0.257663
vn 0.000000 1.000000 0.000000
vn 0.000000 1.000000 0.000000
vn 0.000000 0.000000 0.000000
vn 0.000000 1.000000 0.000000
vn -0.998752 0.000000 -0.049938
vn -0.000000 0.000000 -0.000000
vn -0.998752 0.000000 -0.049938
vn -0.998752 0.000000 -0.049938
vn 0.000000 0.000000 1.000000
vn 0.000000 0.000000 1.000000
vn 0.000000 0.000000 1.000000
vn 0.000000 0.000000 1.000000
vn -0.000000 0.000000 1.000000
vn -0.000000 0.000000 1.000000
vn -0.000001 0.000000 1.000000
vn 0.000000 0.000000 1.000000
vn 0.000000 1.000000 -0.000000
vn 0.000000 1.000000 -0.000000
vn 0.000000 1.000000 -0.000000
vn 0.000000 1.000000 -0.000000
vn 0.000000 1.000000 -0.000000
vn 0.000000 1.000000 -0.000000
vn 0.000000 1.000000 0.000000
vn 0.000000 1.000000 0.000000
vn 0.000000 -1.000000 0.000000
vn 0.000000 -1.000000 0.000000
vn 0.000000 -1.000000 0.000000
vn 0.000000 -1.000000 0.000000
vn 0.000000 -1.000000 0.000000
vn 0.000000 -1.000000 0.000000
vn 0.000000 -1.000000 0.000000
vn 0.000000 -1.000000 0.000000
vn 1.000000 0.000000 0.000001
vn 1.000000 0.000000 0.000001
vn 1.000000 0.000000 0.000000
vn 1.000000 0.000000 0.000000
vn 1.000000 0.000000 0.000000
vn 1.000000 0.000000 0.000000
vn 0.000000 1.000000 0.000000
vn 0.000000 1.000000 0.000000
vn 0.000000 1.000000 0.000000
vn 0.000000 1.000000 0.000000
vn 0.000000 1.000000 0.000000
vn 0.000000 1.000000 0.000000
vn 0.000000 1.000000 0.000000
vn 0.000000 1.000000 0.000000
vn -1.000000 0.000000 0.000001
vn -1.000000 0.000000 0.000001
vn -1.000000 0.000000 -0.000000
vn -1.000000 0.000000 0.000000
vn -1.000000 0.000000 -0.000000
vn -1.000000 0.000000 -0.000000
vn 1.000000 0.000000 0.000001
vn 1.000000 0.000000 0.000001
vn 1.000000 0.000000 0.000001
vn 1.000000 0.000000 0.000001
vn 0.000000 0.000000 1.000000
vn 0.000000 0.000000 1.000000
vn 0.000000 0.000000 1.000000
vn 0.000000 0.000000 1.000000
vn -1.000000 0.000000 0.000000
vn -1.000000 0.000000 0.000000
vn -1.000000 0.000000 0.000000
vn -1.000000 0.000000 0.000000
vn 0.000001 0.000000 -1.000000
vn 0.000001 0.000000 -1.000000
vn 0.000001 0.000000 -1.000000
vn 0.000001 0.000000 -1.000000
vn -0.000001 0.000000 1.000000
vn -0.000001 0.000000 1.000000
vn -0.000001 0.000000 1.000000
vn -0.000001 0.000000 1.000000
vn -1.000000 0.000000 0.000001
vn -1.000000 0.000000 0.000001
vn -1.000000 0.000000 0.000001
vn -1.000000 0.000000 0.000001
vn -0.000001 0.000000 -1.000000
vn -0.000001 0.000000 -1.000000
vn -0.000001 0.000000 -1.000000
vn -0.000001 0.000000 -1.000000
vn 1.000000 0.000000 0.000000
vn 1.000000 0.000000 0.000000
vn 1.000000 0.000000 0.000000
vn 1.000000 0.000000 0.000000
vn 0.000000 0.000000 1.000000
vn 0.000000 0.000000 1.000000
vn 0.000000 0.000000 1.000000
vn 0.000000 0.000000 1.000000
vn 1.000000 0.000000 0.000001
vn 1.000000 0.000000 0.000001
vn 1.000000 0.000000 0.000001
vn 1.000000 0.000000 0.000001
vn 0.000001 0.000000 -1.000000
vn 0.000001 0.000000 -1.000000
vn 0.000001 0.000000 -1.000000
vn 0.000001 0.000000 -1.000000
vn -1.000000 0.000000 0.000000
vn -1.000000 0.000000 0.000000
vn -1.000000 0.000000 0.000000
vn -1.000000 0.000000 0.000000
vn -1.000000 0.000000 0.000001
vn -1.000000 0.000000 0.000001
vn -1.000000 0.000000 0.000001
vn -1.000000 0.000000 0.000001
vn -0.000001 0.000000 1.000000
vn -0.000001 0.000000 1.000000
vn -0.000001 0.000000 1.000000
vn -0.000001 0.000000 1.000000
vn 1.000000 0.000000 0.000000
vn 1.000000 0.000000 0.000000
vn 1.000000 0.000000 0.000000
vn 1.000000 0.000000 0.000000
vn -0.000001 0.000000 -1.000000
vn -0.000001 0.000000 -1.000000
vn -0.000001 0.000000 -1.000000
vn -0.000001 0.000000 -1.000000
s 1
g pCube1
usemtl initialShadingGroup
f 48/115/17 49/116/18 20/117/19
f 20/117/19 49/116/18 47/118/20
f 49/116/18 19/120/21 47/118/20
s off
f 40/128/22 41/129/23 42/130/24 39/131/25
s 1
f 26/127/26 25/126/27 22/125/28
f 25/126/27 18/123/29 22/125/28
f 22/125/28 18/123/29 49/116/18
f 18/123/29 19/120/21 49/116/18
s 3
f 23/132/30 44/180/31 22/183/32
f 22/134/32 44/181/31 43/182/33
f 44/133/31 45/136/34 43/135/33
f 45/136/34 46/137/35 43/135/33
s 1
f 21/121/36 28/119/37 20/117/19
f 20/117/19 28/119/37 48/115/17
f 48/115/17 28/119/37 23/122/38
f 28/119/37 27/124/39 23/122/38
s 4
f 25/79/40 30/191/41 29/81/42 24/82/43
f 26/83/44 31/189/45 30/80/41 25/190/40
f 27/87/46 32/187/47 31/84/45 26/188/44
f 28/89/48 33/90/49 32/88/47 27/186/46
s 5
f 30/138/50 35/139/51 34/140/52 29/141/53
f 31/142/54 36/143/55 35/139/51 30/138/50
f 32/144/56 37/145/57 36/143/55 31/142/54
f 33/146/58 38/147/59 37/145/57 32/144/56
s off
f 28/21/60 21/22/61 38/23/62 33/24/63
f 24/185/64 29/26/65 34/27/66 17/28/67
f 40/31/68 18/32/69 25/33/70 41/34/71
f 25/79/72 24/82/73 42/85/74 41/86/75
f 39/29/76 42/30/77 24/25/78 17/184/79
f 23/35/80 27/36/81 45/37/82 44/38/83
f 27/18/84 26/17/85 46/20/86 45/19/87
f 26/39/88 22/40/89 43/41/90 46/42/91
s 6
f 50/148/92 51/149/93 59/150/94
f 51/149/93 57/151/95 59/150/94
f 59/150/94 57/151/95 65/156/96
f 57/151/95 62/157/97 65/156/96
f 62/157/97 52/158/98 65/156/96
f 52/158/98 53/161/99 65/156/96
s 7
f 54/91/100 23/92/101 56/93/102
f 23/92/101 22/94/103 56/93/102
f 61/96/104 60/95/105 22/94/103
f 22/94/103 60/95/105 56/93/102
f 56/93/102 60/95/105 57/97/106
f 60/95/105 62/98/107 57/97/106
s 8
f 63/99/108 49/100/109 64/101/110
f 49/100/109 48/102/111 64/101/110
f 55/104/112 58/103/113 48/102/111
f 48/102/111 58/103/113 64/101/110
f 64/101/110 58/103/113 65/105/114
f 58/103/113 59/106/115 65/105/114
s 9
f 51/43/116 50/44/117 54/45/118
f 50/44/117 55/46/119 54/45/118
f 54/45/118 55/46/119 23/51/120
f 55/46/119 48/52/121 23/51/120
s off
f 74/107/122 75/108/123 76/109/124 77/110/125
f 78/111/126 79/112/127 80/113/128 81/114/129
s 10
f 53/53/130 52/54/131 63/55/132
f 52/54/131 61/56/133 63/55/132
f 63/55/132 61/56/133 49/61/134
f 61/56/133 22/62/135 49/61/134
s off
f 55/46/136 50/44/137 67/49/138 66/50/139
f 50/148/140 59/150/141 68/152/142 67/153/143
f 59/63/144 58/64/145 69/65/146 68/66/147
f 58/164/148 55/165/149 66/166/150 69/167/151
f 65/156/152 53/161/153 70/162/154 71/163/155
f 53/53/156 63/55/157 72/57/158 70/58/159
f 63/168/160 64/169/161 73/170/162 72/171/163
f 64/67/164 65/68/165 71/69/166 73/70/167
f 57/151/168 51/149/169 75/154/170 74/155/171
f 51/43/172 54/45/173 76/47/174 75/48/175
f 54/172/176 56/173/177 77/174/178 76/175/179
f 56/71/180 57/72/181 74/73/182 77/74/183
f 61/56/184 52/54/185 79/59/186 78/60/187
f 52/158/188 62/157/189 80/159/190 79/160/191
f 62/75/192 60/76/193 81/77/194 80/78/195
f 60/176/196 61/177/197 78/178/198 81/179/199
