# This file uses centimeters as units for non-parametric coordinates.

mtllib doorentrance.mtl
g default
v -7.273471 2.297636 -1.470151
v -4.685088 2.297636 -1.470151
v -7.273471 7.190310 -1.470151
v -4.685088 7.190310 -1.470151
v -7.273471 7.190310 -1.667406
v -4.685088 7.190310 -1.667406
v -7.273471 2.297636 -1.667406
v -4.685088 2.297636 -1.667406
vt 0.262555 0.009834
vt 0.737148 0.009834
vt 0.737148 0.991270
vt 0.262555 0.991270
vt 0.027827 0.513191
vt 0.027827 0.306150
vt 0.234868 0.306150
vt 0.234868 0.513191
vt 0.737148 0.991270
vt 0.262555 0.991270
vt 0.262555 0.009834
vt 0.737148 0.009834
vt 0.234868 0.306150
vt 0.234868 0.513191
vt 0.027827 0.513191
vt 0.027827 0.306150
vt 0.027827 0.306150
vt 0.234868 0.306150
vt 0.234868 0.513191
vt 0.027827 0.513191
vt 0.234868 0.513191
vt 0.027827 0.513191
vt 0.027827 0.306150
vt 0.234868 0.306150
vn 0.000000 0.000000 1.000000
vn 0.000000 0.000000 1.000000
vn 0.000000 0.000000 1.000000
vn 0.000000 0.000000 1.000000
vn 0.000000 1.000000 0.000000
vn 0.000000 1.000000 0.000000
vn 0.000000 1.000000 0.000000
vn 0.000000 1.000000 0.000000
vn 0.000000 0.000000 -1.000000
vn 0.000000 0.000000 -1.000000
vn 0.000000 0.000000 -1.000000
vn 0.000000 0.000000 -1.000000
vn 0.000000 -1.000000 0.000000
vn 0.000000 -1.000000 0.000000
vn 0.000000 -1.000000 0.000000
vn 0.000000 -1.000000 0.000000
vn 1.000000 0.000000 0.000000
vn 1.000000 0.000000 0.000000
vn 1.000000 0.000000 0.000000
vn 1.000000 0.000000 0.000000
vn -1.000000 0.000000 0.000000
vn -1.000000 0.000000 0.000000
vn -1.000000 0.000000 0.000000
vn -1.000000 0.000000 0.000000
s off
g doorentrance:pCube17
usemtl initialShadingGroup
f 1/1/1 2/2/2 4/3/3 3/4/4
f 3/5/5 4/6/6 6/7/7 5/8/8
f 5/9/9 6/10/10 8/11/11 7/12/12
f 7/13/13 8/14/14 2/15/15 1/16/16
f 2/17/17 8/18/18 6/19/19 4/20/20
f 7/21/21 1/22/22 3/23/23 5/24/24
