# This file uses centimeters as units for non-parametric coordinates.

mtllib room1walls.mtl
g default
v 1.803033 1.529331 -1.547633
v 3.988231 1.529331 -1.547633
v 6.855729 1.529335 -1.547633
v 8.539965 1.529335 -1.547633
v 10.224194 1.529333 -1.547633
v 11.908426 1.529333 -1.547633
v 1.803035 2.944320 -1.547633
v 3.988229 2.944320 -1.547633
v 6.855731 2.944320 -1.547633
v 8.539962 2.944320 -1.547633
v 10.224194 2.944320 -1.547633
v 11.908426 2.944320 -1.547633
v 1.803035 4.359308 -1.547633
v 3.988229 4.359308 -1.547633
v 6.855731 4.359308 -1.547633
v 8.539962 4.359308 -1.547633
v 10.224194 4.359308 -1.547633
v 11.908426 4.359308 -1.547633
v 1.803035 5.774294 -1.547633
v 3.988229 5.774294 -1.547633
v 6.855731 5.774294 -1.547633
v 8.539962 5.774294 -1.547633
v 10.224194 5.774294 -1.547633
v 11.908426 5.774294 -1.547633
v 1.803035 7.189282 -1.547633
v 3.988229 7.189282 -1.547633
v 5.171499 7.189282 -1.547633
v 6.855731 7.189282 -1.547633
v 8.539962 7.189282 -1.547633
v 10.224194 7.189282 -1.547633
v 11.908426 7.189282 -1.547633
v 1.803035 8.604269 -1.547633
v 3.487267 8.604269 -1.547633
v 5.171499 8.604269 -1.547633
v 6.855731 8.604269 -1.547633
v 8.539962 8.604269 -1.547633
v 10.224194 8.604269 -1.547633
v 11.908426 8.604269 -1.547633
v 1.803035 10.019257 -1.547633
v 3.487267 10.019257 -1.547633
v 5.171499 10.019257 -1.547633
v 6.855731 10.019257 -1.547633
v 8.539962 10.019257 -1.547633
v 10.224194 10.019257 -1.547633
v 11.908426 10.019257 -1.547633
v 1.803035 10.019257 -2.614226
v 3.487267 10.019257 -2.614226
v 5.171499 10.019257 -2.614226
v 6.855731 10.019257 -2.614226
v 8.539962 10.019257 -2.614226
v 10.224194 10.019257 -2.614226
v 11.908426 10.019257 -2.614226
v 1.803035 8.604268 -2.614226
v 3.487267 8.604268 -2.614226
v 5.171499 8.604268 -2.614226
v 6.855731 8.604268 -2.614226
v 8.539962 8.604268 -2.614226
v 10.224194 8.604268 -2.614226
v 11.908426 8.604268 -2.614226
v 1.803035 7.189280 -2.614226
v 3.988229 7.189280 -2.614226
v 5.171499 7.189280 -2.614226
v 6.855731 7.189280 -2.614226
v 8.539962 7.189280 -2.614226
v 10.224194 7.189280 -2.614226
v 11.908426 7.189280 -2.614226
v 1.803035 5.774293 -2.614226
v 3.988229 5.774293 -2.614226
v 6.855731 5.774293 -2.614226
v 8.539962 5.774293 -2.614226
v 10.224194 5.774293 -2.614226
v 11.908426 5.774293 -2.614226
v 1.803035 4.359307 -2.614226
v 3.988229 4.359307 -2.614226
v 6.855731 4.359307 -2.614226
v 8.539962 4.359307 -2.614226
v 10.224194 4.359307 -2.614226
v 11.908426 4.359307 -2.614226
v 1.803035 2.944319 -2.614226
v 3.988229 2.944319 -2.614226
v 6.855731 2.944319 -2.614226
v 8.539962 2.944319 -2.614226
v 10.224194 2.944319 -2.614226
v 11.908426 2.944319 -2.614226
v 1.803035 1.529333 -2.614226
v 3.988229 1.529333 -2.614226
v 6.855731 1.529333 -2.614226
v 8.539962 1.529333 -2.614226
v 10.224194 1.529333 -2.614226
v 11.908426 1.529333 -2.614226
vt 0.375000 0.000000
vt 0.416667 0.000000
vt 0.500000 0.000000
vt 0.541667 0.000000
vt 0.583333 0.000000
vt 0.625000 0.000000
vt 0.375000 0.041667
vt 0.416667 0.041667
vt 0.500000 0.041667
vt 0.541667 0.041667
vt 0.583333 0.041667
vt 0.625000 0.041667
vt 0.375000 0.083333
vt 0.416667 0.083333
vt 0.500000 0.083333
vt 0.541667 0.083333
vt 0.583333 0.083333
vt 0.625000 0.083333
vt 0.375000 0.125000
vt 0.416667 0.125000
vt 0.500000 0.125000
vt 0.541667 0.125000
vt 0.583333 0.125000
vt 0.625000 0.125000
vt 0.375000 0.166667
vt 0.416667 0.166667
vt 0.458333 0.166667
vt 0.500000 0.166667
vt 0.541667 0.166667
vt 0.583333 0.166667
vt 0.625000 0.166667
vt 0.375000 0.208333
vt 0.416667 0.208333
vt 0.458333 0.208333
vt 0.500000 0.208333
vt 0.541667 0.208333
vt 0.583333 0.208333
vt 0.625000 0.208333
vt 0.375000 0.250000
vt 0.416667 0.250000
vt 0.458333 0.250000
vt 0.500000 0.250000
vt 0.541667 0.250000
vt 0.583333 0.250000
vt 0.625000 0.250000
vt 0.375000 0.500000
vt 0.416667 0.500000
vt 0.458333 0.500000
vt 0.500000 0.500000
vt 0.541667 0.500000
vt 0.583333 0.500000
vt 0.625000 0.500000
vt 0.375000 0.541667
vt 0.416667 0.541667
vt 0.458333 0.541667
vt 0.500000 0.541667
vt 0.541667 0.541667
vt 0.583333 0.541667
vt 0.625000 0.541667
vt 0.375000 0.583333
vt 0.416667 0.583333
vt 0.458333 0.583333
vt 0.500000 0.583333
vt 0.541667 0.583333
vt 0.583333 0.583333
vt 0.625000 0.583333
vt 0.375000 0.625000
vt 0.416667 0.625000
vt 0.500000 0.625000
vt 0.541667 0.625000
vt 0.583333 0.625000
vt 0.625000 0.625000
vt 0.375000 0.666667
vt 0.416667 0.666667
vt 0.500000 0.666667
vt 0.541667 0.666667
vt 0.583333 0.666667
vt 0.625000 0.666667
vt 0.375000 0.708333
vt 0.416667 0.708333
vt 0.500000 0.708333
vt 0.541667 0.708333
vt 0.583333 0.708333
vt 0.625000 0.708333
vt 0.375000 0.750000
vt 0.416667 0.750000
vt 0.500000 0.750000
vt 0.541667 0.750000
vt 0.583333 0.750000
vt 0.625000 0.750000
vt 0.375000 1.000000
vt 0.416667 1.000000
vt 0.500000 1.000000
vt 0.541667 1.000000
vt 0.583333 1.000000
vt 0.625000 1.000000
vt 0.875000 0.000000
vt 0.875000 0.041667
vt 0.875000 0.083333
vt 0.875000 0.125000
vt 0.875000 0.166667
vt 0.875000 0.208333
vt 0.875000 0.250000
vt 0.125000 0.000000
vt 0.125000 0.041667
vt 0.125000 0.083333
vt 0.125000 0.125000
vt 0.125000 0.166667
vt 0.125000 0.208333
vt 0.125000 0.250000
vn 0.000000 0.000000 1.000000
vn 0.000000 0.000000 1.000000
vn 0.000000 0.000000 1.000000
vn 0.000000 0.000000 1.000000
vn 0.000000 0.000000 1.000000
vn 0.000000 0.000000 1.000000
vn 0.000000 0.000000 1.000000
vn 0.000000 0.000000 1.000000
vn 0.000000 0.000000 1.000000
vn 0.000000 0.000000 1.000000
vn 0.000000 0.000000 1.000000
vn 0.000000 0.000000 1.000000
vn 0.000000 0.000000 1.000000
vn 0.000000 0.000000 1.000000
vn 0.000000 0.000000 1.000000
vn 0.000000 0.000000 1.000000
vn 0.000000 0.000000 1.000000
vn 0.000000 0.000000 1.000000
vn 0.000000 0.000000 1.000000
vn 0.000000 0.000000 1.000000
vn 0.000000 0.000000 1.000000
vn 0.000000 0.000000 1.000000
vn 0.000000 0.000000 1.000000
vn 0.000000 0.000000 1.000000
vn 0.000000 0.000000 1.000000
vn 0.000000 0.000000 1.000000
vn 0.000000 0.000000 1.000000
vn 0.000000 0.000000 1.000000
vn 0.000000 0.000000 1.000000
vn 0.000000 0.000000 1.000000
vn 0.000000 0.000000 1.000000
vn 0.000000 0.000000 1.000000
vn 0.000000 0.000000 1.000000
vn 0.000000 0.000000 1.000000
vn 0.000000 0.000000 1.000000
vn 0.000000 0.000000 1.000000
vn 0.000000 0.000000 1.000000
vn 0.000000 0.000000 1.000000
vn 0.000000 0.000000 1.000000
vn 0.000000 0.000000 1.000000
vn 0.000000 0.000000 1.000000
vn 0.000000 0.000000 1.000000
vn 0.000000 0.000000 1.000000
vn 0.000000 0.000000 1.000000
vn 0.000000 0.000000 1.000000
vn 0.000000 1.000000 0.000000
vn 0.000000 1.000000 0.000000
vn 0.000000 1.000000 0.000000
vn 0.000000 1.000000 0.000000
vn 0.000000 1.000000 0.000000
vn 0.000000 1.000000 0.000000
vn 0.000000 1.000000 0.000000
vn 0.000000 1.000000 0.000000
vn 0.000000 1.000000 0.000000
vn 0.000000 1.000000 0.000000
vn 0.000000 1.000000 0.000000
vn 0.000000 1.000000 0.000000
vn 0.000000 1.000000 0.000000
vn 0.000000 1.000000 0.000000
vn 0.000000 0.000000 -1.000000
vn 0.000000 0.000000 -1.000000
vn 0.000000 0.000000 -1.000000
vn 0.000000 0.000000 -1.000000
vn 0.000000 0.000000 -1.000000
vn 0.000000 0.000000 -1.000000
vn 0.000000 0.000000 -1.000000
vn 0.000000 0.000000 -1.000000
vn 0.000000 0.000000 -1.000000
vn 0.000000 0.000000 -1.000000
vn 0.000000 0.000000 -1.000000
vn 0.000000 0.000000 -1.000000
vn 0.000000 0.000000 -1.000000
vn 0.000000 0.000000 -1.000000
vn 0.000000 0.000000 -1.000000
vn 0.000000 0.000000 -1.000000
vn 0.000000 0.000000 -1.000000
vn 0.000000 0.000000 -1.000000
vn 0.000000 0.000000 -1.000000
vn 0.000000 0.000000 -1.000000
vn 0.000000 0.000000 -1.000000
vn 0.000000 0.000000 -1.000000
vn 0.000000 0.000000 -1.000000
vn 0.000000 0.000000 -1.000000
vn 0.000000 0.000000 -1.000000
vn 0.000000 0.000000 -1.000000
vn 0.000000 0.000000 -1.000000
vn 0.000000 0.000000 -1.000000
vn 0.000000 0.000000 -1.000000
vn 0.000000 0.000000 -1.000000
vn 0.000000 0.000000 -1.000000
vn 0.000000 0.000000 -1.000000
vn 0.000000 0.000000 -1.000000
vn 0.000000 0.000000 -1.000000
vn 0.000000 0.000000 -1.000000
vn 0.000000 0.000000 -1.000000
vn 0.000000 0.000000 -1.000000
vn 0.000000 0.000000 -1.000000
vn 0.000000 0.000000 -1.000000
vn 0.000000 0.000000 -1.000000
vn 0.000000 0.000000 -1.000000
vn 0.000000 0.000000 -1.000000
vn 0.000000 0.000000 -1.000000
vn 0.000000 0.000000 -1.000000
vn 0.000000 0.000000 -1.000000
vn 0.000000 -1.000000 -0.000002
vn 0.000000 -1.000000 -0.000002
vn 0.000000 -1.000000 -0.000002
vn 0.000000 -1.000000 -0.000002
vn 0.000000 -1.000000 0.000002
vn -0.000000 -1.000000 0.000001
vn -0.000000 -1.000000 0.000001
vn 0.000000 -1.000000 0.000002
vn -0.000000 -1.000000 0.000001
vn -0.000000 -1.000000 0.000001
vn 0.000000 -1.000000 0.000000
vn 0.000000 -1.000000 0.000000
vn 1.000000 0.000000 0.000000
vn 1.000000 0.000000 0.000000
vn 1.000000 0.000000 0.000000
vn 1.000000 0.000000 0.000000
vn 1.000000 0.000000 0.000000
vn 1.000000 0.000000 0.000000
vn 1.000000 0.000000 0.000000
vn 1.000000 0.000000 0.000000
vn 1.000000 0.000000 0.000000
vn 1.000000 0.000000 0.000000
vn 1.000000 0.000000 0.000000
vn 1.000000 0.000000 0.000000
vn 1.000000 0.000000 0.000000
vn 1.000000 0.000000 0.000000
vn -1.000000 0.000001 -0.000001
vn -1.000000 0.000001 -0.000001
vn -1.000000 0.000000 -0.000001
vn -1.000000 0.000000 -0.000001
vn -1.000000 0.000000 0.000000
vn -1.000000 0.000000 0.000000
vn -1.000000 0.000000 0.000000
vn -1.000000 0.000000 0.000000
vn -1.000000 0.000000 0.000000
vn -1.000000 0.000000 0.000000
vn -1.000000 0.000000 0.000000
vn -1.000000 0.000000 0.000000
vn -1.000000 0.000000 0.000000
vn -1.000000 0.000000 0.000000
vn 1.000000 0.000001 -0.000001
vn 1.000000 0.000001 -0.000001
vn 1.000000 0.000001 -0.000001
vn 1.000000 0.000001 -0.000001
vn 1.000000 0.000000 0.000000
vn 1.000000 0.000000 0.000000
vn 1.000000 0.000000 0.000000
vn 1.000000 0.000000 0.000000
vn 1.000000 0.000000 0.000000
vn 1.000000 0.000000 0.000000
vn 1.000000 0.000000 0.000000
vn 1.000000 0.000000 0.000000
vn 1.000000 0.000000 0.000000
vn 1.000000 0.000000 0.000000
vn 1.000000 0.000000 0.000000
vn 1.000000 0.000000 0.000000
vn -1.000000 0.000001 -0.000001
vn -1.000000 0.000001 -0.000001
vn -1.000000 0.000001 -0.000001
vn -1.000000 0.000001 -0.000001
vn -1.000000 0.000000 0.000000
vn -1.000000 0.000000 0.000000
vn -1.000000 0.000000 0.000000
vn -1.000000 0.000000 0.000000
vn -1.000000 0.000000 0.000000
vn -1.000000 0.000000 0.000000
vn -1.000000 0.000000 0.000000
vn -1.000000 0.000000 0.000000
vn -1.000000 0.000000 0.000000
vn -1.000000 0.000000 0.000000
vn -1.000000 0.000000 0.000000
vn -1.000000 0.000000 0.000000
vn 0.000000 -1.000000 0.000001
vn 0.000000 -1.000000 0.000001
vn 0.000000 -1.000000 0.000001
vn 0.000000 -1.000000 0.000001
vn 0.000000 -1.000000 0.000001
vn 0.000000 -1.000000 0.000001
vn 0.000000 -1.000000 0.000001
vn 0.000000 -1.000000 0.000001
s 1
g pCube8
usemtl initialShadingGroup
f 1/1/1 2/2/2 8/8/3 7/7/4
f 3/3/5 4/4/6 10/10/7 9/9/8
f 4/4/6 5/5/9 11/11/10 10/10/7
f 5/5/9 6/6/11 12/12/12 11/11/10
f 7/7/4 8/8/3 14/14/13 13/13/14
f 9/9/8 10/10/7 16/16/15 15/15/16
f 10/10/7 11/11/10 17/17/17 16/16/15
f 11/11/10 12/12/12 18/18/18 17/17/17
f 13/13/14 14/14/13 20/20/19 19/19/20
f 15/15/16 16/16/15 22/22/21 21/21/22
f 16/16/15 17/17/17 23/23/23 22/22/21
f 17/17/17 18/18/18 24/24/24 23/23/23
f 19/19/20 20/20/19 26/26/25 25/25/26
f 21/21/22 22/22/21 29/29/27 28/28/28
f 22/22/21 23/23/23 30/30/29 29/29/27
f 23/23/23 24/24/24 31/31/30 30/30/29
f 25/25/26 26/26/25 33/33/31 32/32/32
f 26/26/25 27/27/33 34/34/34 33/33/31
f 27/27/33 28/28/28 35/35/35 34/34/34
f 28/28/28 29/29/27 36/36/36 35/35/35
f 29/29/27 30/30/29 37/37/37 36/36/36
f 30/30/29 31/31/30 38/38/38 37/37/37
f 32/32/32 33/33/31 40/40/39 39/39/40
f 33/33/31 34/34/34 41/41/41 40/40/39
f 34/34/34 35/35/35 42/42/42 41/41/41
f 35/35/35 36/36/36 43/43/43 42/42/42
f 36/36/36 37/37/37 44/44/44 43/43/43
f 37/37/37 38/38/38 45/45/45 44/44/44
s 3
f 39/39/46 40/40/47 47/47/48 46/46/49
f 40/40/47 41/41/50 48/48/51 47/47/48
f 41/41/50 42/42/52 49/49/53 48/48/51
f 42/42/52 43/43/54 50/50/55 49/49/53
f 43/43/54 44/44/56 51/51/57 50/50/55
f 44/44/56 45/45/58 52/52/59 51/51/57
s 4
f 46/46/60 47/47/61 54/54/62 53/53/63
f 47/47/61 48/48/64 55/55/65 54/54/62
f 48/48/64 49/49/66 56/56/67 55/55/65
f 49/49/66 50/50/68 57/57/69 56/56/67
f 50/50/68 51/51/70 58/58/71 57/57/69
f 51/51/70 52/52/72 59/59/73 58/58/71
f 53/53/63 54/54/62 61/61/74 60/60/75
f 54/54/62 55/55/65 62/62/76 61/61/74
f 55/55/65 56/56/67 63/63/77 62/62/76
f 56/56/67 57/57/69 64/64/78 63/63/77
f 57/57/69 58/58/71 65/65/79 64/64/78
f 58/58/71 59/59/73 66/66/80 65/65/79
f 60/60/75 61/61/74 68/68/81 67/67/82
f 63/63/77 64/64/78 70/70/83 69/69/84
f 64/64/78 65/65/79 71/71/85 70/70/83
f 65/65/79 66/66/80 72/72/86 71/71/85
f 67/67/82 68/68/81 74/74/87 73/73/88
f 69/69/84 70/70/83 76/76/89 75/75/90
f 70/70/83 71/71/85 77/77/91 76/76/89
f 71/71/85 72/72/86 78/78/92 77/77/91
f 73/73/88 74/74/87 80/80/93 79/79/94
f 75/75/90 76/76/89 82/82/95 81/81/96
f 76/76/89 77/77/91 83/83/97 82/82/95
f 77/77/91 78/78/92 84/84/98 83/83/97
f 79/79/94 80/80/93 86/86/99 85/85/100
f 81/81/96 82/82/95 88/88/101 87/87/102
f 82/82/95 83/83/97 89/89/103 88/88/101
f 83/83/97 84/84/98 90/90/104 89/89/103
s off
f 85/85/105 86/86/106 2/92/107 1/91/108
s 5
f 87/87/109 88/88/110 4/94/111 3/93/112
f 88/88/110 89/89/113 5/95/114 4/94/111
f 89/89/113 90/90/115 6/96/116 5/95/114
s 6
f 6/6/117 90/97/118 84/98/119 12/12/120
f 12/12/120 84/98/119 78/99/121 18/18/122
f 18/18/122 78/99/121 72/100/123 24/24/124
f 24/24/124 72/100/123 66/101/125 31/31/126
f 31/31/126 66/101/125 59/102/127 38/38/128
f 38/38/128 59/102/127 52/103/129 45/45/130
s 7
f 85/104/131 1/1/132 7/7/133 79/105/134
f 79/105/134 7/7/133 13/13/135 73/106/136
f 73/106/136 13/13/135 19/19/137 67/107/138
f 67/107/138 19/19/137 25/25/139 60/108/140
f 60/108/140 25/25/139 32/32/141 53/109/142
f 53/109/142 32/32/141 39/39/143 46/110/144
s off
f 8/8/145 2/2/146 86/86/147 80/80/148
f 26/26/149 20/20/150 68/68/151 61/61/152
f 20/20/153 14/14/154 74/74/155 68/68/156
f 14/14/157 8/8/158 80/80/159 74/74/160
f 3/3/161 9/9/162 81/81/163 87/87/164
f 9/9/165 15/15/166 75/75/167 81/81/168
f 15/15/169 21/21/170 69/69/171 75/75/172
f 21/21/173 28/28/174 63/63/175 69/69/176
f 28/28/177 27/27/178 62/62/179 63/63/180
f 27/27/181 26/26/182 61/61/183 62/62/184
