# This file uses centimeters as units for non-parametric coordinates.

mtllib room1wall(1).mtl
g default
v 1.803033 1.529331 -1.547634
v 3.988231 1.529331 -1.547634
v 6.855729 1.529335 -1.547634
v 8.539965 1.529335 -1.547634
v 10.224194 1.529333 -1.547634
v 11.908425 1.529333 -1.547634
v 1.803035 2.944320 -1.547634
v 3.988229 2.944320 -1.547634
v 6.855731 2.944320 -1.547634
v 8.539962 2.944320 -1.547634
v 10.224194 2.944320 -1.547634
v 11.908425 2.944320 -1.547634
v 1.803035 4.359308 -1.547634
v 3.988229 4.359308 -1.547634
v 6.855731 4.359308 -1.547634
v 8.539962 4.359308 -1.547634
v 10.224194 4.359308 -1.547634
v 11.908425 4.359308 -1.547634
v 1.803035 5.774294 -1.547634
v 3.988228 5.774294 -1.547634
v 6.855731 5.774294 -1.547634
v 8.539962 5.774294 -1.547634
v 10.224194 5.774294 -1.547634
v 11.908425 5.774294 -1.547634
v 1.803035 7.189281 -1.547634
v 3.988229 7.189281 -1.547634
v 5.171499 7.189281 -1.547634
v 6.855731 7.189281 -1.547634
v 8.539962 7.189281 -1.547634
v 10.224194 7.189281 -1.547634
v 11.908425 7.189281 -1.547634
v 1.803035 8.604269 -1.547634
v 3.487267 8.604269 -1.547634
v 5.171499 8.604269 -1.547634
v 6.855731 8.604269 -1.547634
v 8.539962 8.604269 -1.547634
v 10.224194 8.604269 -1.547634
v 11.908425 8.604269 -1.547634
v 1.803035 10.019257 -1.547634
v 3.487267 10.019257 -1.547634
v 5.171499 10.019257 -1.547634
v 6.855731 10.019257 -1.547634
v 8.539962 10.019257 -1.547634
v 10.224194 10.019257 -1.547634
v 11.908425 10.019257 -1.547634
v 1.803035 10.019257 -2.614226
v 3.487267 10.019257 -2.614226
v 5.171499 10.019257 -2.614226
v 6.855731 10.019257 -2.614226
v 8.539962 10.019257 -2.614226
v 10.224194 10.019257 -2.614226
v 11.908425 10.019257 -2.614226
v 1.803035 8.604268 -2.614226
v 3.487267 8.604268 -2.614226
v 5.171499 8.604268 -2.614226
v 6.855731 8.604268 -2.614226
v 8.539962 8.604268 -2.614226
v 10.224194 8.604268 -2.614226
v 11.908425 8.604268 -2.614226
v 1.803035 7.189280 -2.614226
v 3.988229 7.189280 -2.614226
v 5.171499 7.189280 -2.614226
v 6.855731 7.189280 -2.614226
v 8.539962 7.189280 -2.614226
v 10.224194 7.189280 -2.614226
v 11.908425 7.189280 -2.614226
v 1.803035 5.774293 -2.614226
v 3.988229 5.774293 -2.614226
v 6.855731 5.774293 -2.614226
v 8.539962 5.774293 -2.614226
v 10.224194 5.774293 -2.614226
v 11.908425 5.774293 -2.614226
v 1.803035 4.359307 -2.614226
v 3.988229 4.359307 -2.614226
v 6.855731 4.359307 -2.614226
v 8.539962 4.359307 -2.614226
v 10.224194 4.359307 -2.614226
v 11.908425 4.359307 -2.614226
v 1.803035 2.944320 -2.614226
v 3.988229 2.944320 -2.614226
v 6.855731 2.944320 -2.614226
v 8.539962 2.944320 -2.614226
v 10.224194 2.944320 -2.614226
v 11.908425 2.944320 -2.614226
v 1.803035 1.529333 -2.614226
v 3.988229 1.529333 -2.614226
v 6.855731 1.529333 -2.614226
v 8.539962 1.529333 -2.614226
v 10.224194 1.529333 -2.614226
v 11.908425 1.529333 -2.614226
vt 0.146511 0.492106
vt 0.028992 0.492106
vt 0.028992 0.349348
vt 0.146511 0.349348
vt 0.264033 0.492106
vt 0.264030 0.349348
vt 0.381552 0.492106
vt 0.381552 0.349348
vt 0.499073 0.492106
vt 0.499073 0.349348
vt 0.028993 0.349348
vt 0.146512 0.349348
vt 0.146512 0.492106
vt 0.028993 0.492106
vt 0.264033 0.349348
vt 0.264032 0.492106
vt 0.381552 0.349348
vt 0.381552 0.492106
vt 0.499072 0.349348
vt 0.499072 0.492106
vt 0.493424 0.488465
vt 0.224336 0.488465
vt 0.224336 0.348307
vt 0.493424 0.348307
vt 0.035287 0.488465
vt 0.035287 0.348307
vt 0.500254 0.027352
vt 0.500254 0.179105
vt 0.421470 0.179105
vt 0.421470 0.027352
vt 0.342686 0.179105
vt 0.342686 0.027352
vt 0.263902 0.179105
vt 0.263902 0.027352
vt 0.185121 0.179105
vt 0.185121 0.027352
vt 0.106337 0.179105
vt 0.106337 0.027352
vt 0.185121 0.291556
vt 0.106337 0.291556
vt 0.027553 0.179105
vt 0.027553 0.027352
vt 0.185121 0.423612
vt 0.106337 0.423612
vt 0.027553 0.291556
vt 0.185121 0.555699
vt 0.106337 0.555699
vt 0.027553 0.423612
vt 0.263907 0.423612
vt 0.263907 0.555699
vt 0.185121 0.687785
vt 0.106337 0.687785
vt 0.027553 0.555699
vt 0.342691 0.423612
vt 0.342691 0.555699
vt 0.263907 0.687785
vt 0.185121 0.819872
vt 0.106337 0.819872
vt 0.027553 0.687785
vt 0.421475 0.423612
vt 0.421475 0.555699
vt 0.342691 0.687785
vt 0.263907 0.819872
vt 0.027553 0.819872
vt 0.500259 0.423612
vt 0.500259 0.555699
vt 0.421475 0.687785
vt 0.342691 0.819872
vt 0.500259 0.687785
vt 0.421475 0.819872
vt 0.500259 0.819872
vt 0.027555 0.026870
vt 0.027555 0.178599
vt 0.106340 0.178599
vt 0.106340 0.026870
vt 0.027555 0.290902
vt 0.106340 0.290902
vt 0.185122 0.178599
vt 0.185122 0.026870
vt 0.027555 0.423129
vt 0.106340 0.423129
vt 0.185122 0.290902
vt 0.264023 0.178599
vt 0.264023 0.026870
vt 0.027555 0.555218
vt 0.106340 0.555218
vt 0.185122 0.423129
vt 0.342808 0.178599
vt 0.342808 0.026870
vt 0.027555 0.687305
vt 0.106340 0.687305
vt 0.185122 0.555218
vt 0.421589 0.178599
vt 0.421589 0.026870
vt 0.027555 0.819388
vt 0.106340 0.819388
vt 0.185122 0.687305
vt 0.263832 0.555218
vt 0.263832 0.423129
vt 0.500374 0.178599
vt 0.500374 0.026870
vt 0.185122 0.819388
vt 0.263832 0.687305
vt 0.342617 0.555218
vt 0.342617 0.423129
vt 0.263832 0.819388
vt 0.342617 0.687305
vt 0.421399 0.555218
vt 0.421399 0.423129
vt 0.342617 0.819388
vt 0.421399 0.687305
vt 0.500183 0.555218
vt 0.500183 0.423129
vt 0.421399 0.819388
vt 0.500183 0.687305
vt 0.500184 0.819388
vn 0.000000 0.000000 1.000000
vn 0.000000 0.000000 1.000000
vn 0.000000 0.000000 1.000000
vn 0.000000 0.000000 1.000000
vn 0.000000 0.000000 1.000000
vn 0.000000 0.000000 1.000000
vn 0.000000 0.000000 1.000000
vn 0.000000 0.000000 1.000000
vn 0.000000 0.000000 1.000000
vn 0.000000 0.000000 1.000000
vn 0.000000 0.000000 1.000000
vn 0.000000 0.000000 1.000000
vn 0.000000 0.000000 1.000000
vn 0.000000 0.000000 1.000000
vn 0.000000 0.000000 1.000000
vn 0.000000 0.000000 1.000000
vn 0.000000 0.000000 1.000000
vn 0.000000 0.000000 1.000000
vn 0.000000 0.000000 1.000000
vn 0.000000 0.000000 1.000000
vn 0.000000 0.000000 1.000000
vn 0.000000 0.000000 1.000000
vn 0.000000 0.000000 1.000000
vn 0.000000 0.000000 1.000000
vn 0.000000 0.000000 1.000000
vn 0.000000 0.000000 1.000000
vn 0.000000 0.000000 1.000000
vn 0.000000 0.000000 1.000000
vn 0.000000 0.000000 1.000000
vn 0.000000 0.000000 1.000000
vn 0.000000 0.000000 1.000000
vn 0.000000 0.000000 1.000000
vn 0.000000 0.000000 1.000000
vn 0.000000 0.000000 1.000000
vn 0.000000 0.000000 1.000000
vn 0.000000 0.000000 1.000000
vn 0.000000 0.000000 1.000000
vn 0.000000 0.000000 1.000000
vn 0.000000 0.000000 1.000000
vn 0.000000 0.000000 1.000000
vn 0.000000 0.000000 1.000000
vn 0.000000 0.000000 1.000000
vn 0.000000 0.000000 1.000000
vn 0.000000 0.000000 1.000000
vn 0.000000 0.000000 1.000000
vn 0.000000 0.000000 -1.000000
vn 0.000000 0.000000 -1.000000
vn 0.000000 0.000000 -1.000000
vn 0.000000 0.000000 -1.000000
vn 0.000000 0.000000 -1.000000
vn 0.000000 0.000000 -1.000000
vn 0.000000 0.000000 -1.000000
vn 0.000000 0.000000 -1.000000
vn 0.000000 0.000000 -1.000000
vn 0.000000 0.000000 -1.000000
vn 0.000000 0.000000 -1.000000
vn 0.000000 0.000000 -1.000000
vn 0.000000 0.000000 -1.000000
vn 0.000000 0.000000 -1.000000
vn 0.000000 0.000000 -1.000000
vn 0.000000 0.000000 -1.000000
vn 0.000000 0.000000 -1.000000
vn 0.000000 0.000000 -1.000000
vn 0.000000 0.000000 -1.000000
vn 0.000000 0.000000 -1.000000
vn 0.000000 0.000000 -1.000000
vn 0.000000 0.000000 -1.000000
vn 0.000000 0.000000 -1.000000
vn 0.000000 0.000000 -1.000000
vn 0.000000 0.000000 -1.000000
vn 0.000000 0.000000 -1.000000
vn 0.000000 0.000000 -1.000000
vn 0.000000 0.000000 -1.000000
vn 0.000000 0.000000 -1.000000
vn 0.000000 0.000000 -1.000000
vn 0.000000 0.000000 -1.000000
vn 0.000000 0.000000 -1.000000
vn 0.000000 0.000000 -1.000000
vn 0.000000 0.000000 -1.000000
vn 0.000000 0.000000 -1.000000
vn 0.000000 0.000000 -1.000000
vn 0.000000 0.000000 -1.000000
vn 0.000000 0.000000 -1.000000
vn 0.000000 0.000000 -1.000000
vn 0.000000 0.000000 -1.000000
vn 0.000000 0.000000 -1.000000
vn 0.000000 0.000000 -1.000000
vn 0.000000 0.000000 -1.000000
vn 0.000000 0.000000 -1.000000
vn 0.000000 0.000000 -1.000000
vn 1.000000 0.000001 -0.000001
vn 1.000000 0.000001 -0.000001
vn 1.000000 0.000001 -0.000001
vn 1.000000 0.000001 -0.000001
vn 1.000000 -0.000000 0.000000
vn 1.000000 -0.000000 0.000000
vn 1.000000 -0.000000 0.000000
vn 1.000000 -0.000000 0.000000
vn 1.000000 0.000000 0.000000
vn 1.000000 0.000000 0.000000
vn 1.000000 0.000000 0.000000
vn 1.000000 0.000000 0.000000
vn 1.000000 0.000000 0.000000
vn 1.000000 0.000000 0.000000
vn 1.000000 0.000000 0.000000
vn 1.000000 0.000000 0.000000
vn -1.000000 0.000001 -0.000001
vn -1.000000 0.000001 -0.000001
vn -1.000000 0.000001 -0.000001
vn -1.000000 0.000001 -0.000001
vn -1.000000 0.000000 0.000000
vn -1.000000 0.000000 0.000000
vn -1.000000 0.000000 0.000000
vn -1.000000 0.000000 0.000000
vn -1.000000 0.000000 0.000000
vn -1.000000 0.000000 0.000000
vn -1.000000 0.000000 0.000000
vn -1.000000 0.000000 0.000000
vn -1.000000 0.000000 0.000000
vn -1.000000 0.000000 0.000000
vn -1.000000 0.000000 0.000000
vn -1.000000 0.000000 0.000000
vn 0.000000 -1.000000 0.000001
vn 0.000000 -1.000000 0.000001
vn 0.000000 -1.000000 0.000001
vn 0.000000 -1.000000 0.000001
vn 0.000000 -1.000000 0.000001
vn 0.000000 -1.000000 0.000001
vn 0.000000 -1.000000 0.000001
vn 0.000000 -1.000000 0.000001
s 1
g House1:pCube8
usemtl initialShadingGroup
f 1/27/1 2/28/2 8/29/3 7/30/4
f 3/65/5 4/66/6 10/61/7 9/60/8
f 4/66/6 5/69/9 11/67/10 10/61/7
f 5/69/9 6/71/11 12/70/12 11/67/10
f 7/30/4 8/29/3 14/31/13 13/32/14
f 9/60/8 10/61/7 16/55/15 15/54/16
f 10/61/7 11/67/10 17/62/17 16/55/15
f 11/67/10 12/70/12 18/68/18 17/62/17
f 13/32/14 14/31/13 20/33/19 19/34/20
f 15/54/16 16/55/15 22/50/21 21/49/22
f 16/55/15 17/62/17 23/56/23 22/50/21
f 17/62/17 18/68/18 24/63/24 23/56/23
f 19/34/20 20/33/19 26/35/25 25/36/26
f 21/49/22 22/50/21 29/46/27 28/43/28
f 22/50/21 23/56/23 30/51/29 29/46/27
f 23/56/23 24/63/24 31/57/30 30/51/29
f 25/36/26 26/35/25 33/37/31 32/38/32
f 26/35/25 27/39/33 34/40/34 33/37/31
f 27/39/33 28/43/28 35/44/35 34/40/34
f 28/43/28 29/46/27 36/47/36 35/44/35
f 29/46/27 30/51/29 37/52/37 36/47/36
f 30/51/29 31/57/30 38/58/38 37/52/37
f 32/38/32 33/37/31 40/41/39 39/42/40
f 33/37/31 34/40/34 41/45/41 40/41/39
f 34/40/34 35/44/35 42/48/42 41/45/41
f 35/44/35 36/47/36 43/53/43 42/48/42
f 36/47/36 37/52/37 44/59/44 43/53/43
f 37/52/37 38/58/38 45/64/45 44/59/44
s 3
f 46/72/46 47/73/47 54/74/48 53/75/49
f 47/73/47 48/76/50 55/77/51 54/74/48
f 48/76/50 49/80/52 56/81/53 55/77/51
f 49/80/52 50/85/54 57/86/55 56/81/53
f 50/85/54 51/90/56 58/91/57 57/86/55
f 51/90/56 52/95/58 59/96/59 58/91/57
f 53/75/49 54/74/48 61/78/60 60/79/61
f 54/74/48 55/77/51 62/82/62 61/78/60
f 55/77/51 56/81/53 63/87/63 62/82/62
f 56/81/53 57/86/55 64/92/64 63/87/63
f 57/86/55 58/91/57 65/97/65 64/92/64
f 58/91/57 59/96/59 66/102/66 65/97/65
f 60/79/61 61/78/60 68/83/67 67/84/68
f 63/87/63 64/92/64 70/98/69 69/99/70
f 64/92/64 65/97/65 71/103/71 70/98/69
f 65/97/65 66/102/66 72/106/72 71/103/71
f 67/84/68 68/83/67 74/88/73 73/89/74
f 69/99/70 70/98/69 76/104/75 75/105/76
f 70/98/69 71/103/71 77/107/77 76/104/75
f 71/103/71 72/106/72 78/110/78 77/107/77
f 73/89/74 74/88/73 80/93/79 79/94/80
f 75/105/76 76/104/75 82/108/81 81/109/82
f 76/104/75 77/107/77 83/111/83 82/108/81
f 77/107/77 78/110/78 84/114/84 83/111/83
f 79/94/80 80/93/79 86/100/85 85/101/86
f 81/109/82 82/108/81 88/112/87 87/113/88
f 82/108/81 83/111/83 89/115/89 88/112/87
f 83/111/83 84/114/84 90/116/90 89/115/89
s off
f 8/1/91 2/2/92 86/3/93 80/4/94
f 26/9/95 20/7/96 68/8/97 61/10/98
f 20/7/99 14/5/100 74/6/101 68/8/102
f 14/5/103 8/1/104 80/4/105 74/6/106
f 3/11/107 9/12/108 81/13/109 87/14/110
f 9/12/111 15/15/112 75/16/113 81/13/114
f 15/15/115 21/17/116 69/18/117 75/16/118
f 21/17/119 28/19/120 63/20/121 69/18/122
f 28/21/123 27/22/124 62/23/125 63/24/126
f 27/22/127 26/25/128 61/26/129 62/23/130
